<svg xmlns="http://www.w3.org/2000/svg" aria-hidden="true" style="position:absolute;width:0;height:0;overflow:hidden">
  <defs>
    <symbol id="icon-Logo" viewBox="0 0 208 32">
      <path fill="#3470ff" d="M202.142 15.291c-1.366 0-2.614.079-3.744.236s-2.351.473-3.665.946v15.054h-6.857V9.143h5.084l1.025 2.64c1.366-1.103 2.706-1.892 4.02-2.365s2.694-.709 4.138-.709v6.581zM184.597 31.291c-.841.184-1.59.315-2.246.394a18.38 18.38 0 0 1-2.246.118c-2.522 0-4.177-.814-4.965-2.443-1.103.814-2.207 1.432-3.31 1.852s-2.312.631-3.626.631c-1.182 0-2.246-.25-3.192-.749s-1.681-1.169-2.207-2.01a5.109 5.109 0 0 1-.788-2.759c0-1.682.42-3.008 1.261-3.98.867-.998 2.023-1.787 3.468-2.365 1.445-.604 3.639-1.327 6.581-2.167l1.182-.355V17.3c0-2.417-1.103-3.626-3.31-3.626-1.077 0-2.233.236-3.468.709s-2.653 1.235-4.256 2.286l-1.301-4.729a27.486 27.486 0 0 1 5.438-2.404c1.865-.578 3.836-.867 5.911-.867 2.522 0 4.453.683 5.793 2.049 1.366 1.366 2.049 3.704 2.049 7.015v7.488c0 .578.118.998.355 1.261.237.236.617.355 1.143.355.499 0 .998-.066 1.497-.197l.237 4.65zm-15.724-5.872c0 .525.131.906.394 1.143.289.236.736.355 1.34.355 1.103 0 2.404-.473 3.901-1.419v-4.177l-.591.197c-1.971.709-3.31 1.34-4.02 1.892-.683.526-1.025 1.195-1.025 2.01zM150.364 32c-3.258 0-6.016-.63-8.276-1.892-2.259-1.287-3.954-2.982-5.084-5.084-1.103-2.128-1.655-4.44-1.655-6.936 0-2.47.578-4.755 1.734-6.857 1.182-2.102 2.929-3.783 5.241-5.044s5.097-1.892 8.355-1.892c3.048 0 5.727.591 8.039 1.773l-1.419 4.966a15.82 15.82 0 0 0-3.034-1.182c-1.051-.315-2.246-.473-3.586-.473-1.708 0-3.192.394-4.453 1.182-1.235.762-2.181 1.813-2.837 3.153-.631 1.314-.946 2.785-.946 4.414 0 2.575.683 4.69 2.049 6.345 1.366 1.629 3.323 2.443 5.872 2.443 2.181 0 4.532-.539 7.054-1.616l1.34 4.847c-1.077.552-2.365.998-3.862 1.34s-3.008.512-4.532.512z" style="fill:var(--color1, #3470ff)"/>
      <path fill="#101828" d="M123.567 0h6.857v31.527h-6.857V0zM120.288 31.291c-.841.184-1.59.315-2.246.394a18.37 18.37 0 0 1-2.246.118c-2.522 0-4.177-.814-4.966-2.443-1.103.814-2.207 1.432-3.31 1.852s-2.312.631-3.626.631c-1.182 0-2.246-.25-3.192-.749s-1.682-1.169-2.207-2.01a5.109 5.109 0 0 1-.788-2.759c0-1.682.42-3.008 1.261-3.98.867-.998 2.023-1.787 3.468-2.365 1.445-.604 3.639-1.327 6.581-2.167l1.182-.355V17.3c0-2.417-1.103-3.626-3.31-3.626-1.077 0-2.233.236-3.468.709s-2.654 1.235-4.256 2.286l-1.301-4.729a27.468 27.468 0 0 1 5.439-2.404c1.865-.578 3.836-.867 5.911-.867 2.522 0 4.453.683 5.793 2.049 1.366 1.366 2.049 3.704 2.049 7.015v7.488c0 .578.118.998.355 1.261.236.236.617.355 1.143.355.499 0 .998-.066 1.498-.197l.236 4.65zm-15.724-5.872c0 .525.131.906.394 1.143.289.236.736.355 1.34.355 1.103 0 2.404-.473 3.901-1.419v-4.177l-.591.197c-1.97.709-3.31 1.34-4.02 1.892-.683.526-1.025 1.195-1.025 2.01zM95.248 30.069c-.788.552-1.734.985-2.838 1.301a12.138 12.138 0 0 1-3.153.433c-2.785 0-4.86-.604-6.227-1.813-1.366-1.235-2.049-2.995-2.049-5.281V13.99h-3.35v-2.877l4.217-1.695 1.892-6.03h4.098v5.754h6.305v4.847h-6.305v9.064c0 1.392.223 2.378.67 2.956s1.117.867 2.01.867c1.156 0 2.378-.341 3.665-1.025l1.064 4.217zM66.38 8.67c2.916 0 4.926.775 6.03 2.325 1.13 1.55 1.695 3.783 1.695 6.7v13.833h-6.857V18.562c0-1.839-.223-3.113-.67-3.823-.42-.709-1.248-1.064-2.483-1.064-1.34 0-2.706.447-4.098 1.34v16.512H53.14V9.143h5.084l.709 1.852c2.575-1.55 5.058-2.325 7.448-2.325zM34.057 21.596c.131 1.865.591 3.245 1.379 4.138s1.997 1.34 3.626 1.34c1.209 0 2.325-.21 3.35-.63 1.051-.447 2.246-1.103 3.586-1.97l1.852 4.335c-1.392 1.13-2.772 1.944-4.138 2.443s-2.929.749-4.69.749c-2.601 0-4.782-.499-6.542-1.498-1.76-1.025-3.074-2.404-3.941-4.138-.841-1.76-1.261-3.757-1.261-5.99 0-3.547.998-6.384 2.995-8.512s4.913-3.192 8.749-3.192c3.048 0 5.36.828 6.936 2.483 1.603 1.629 2.417 3.954 2.443 6.975a11.94 11.94 0 0 1-.512 3.468H34.057zm7.684-4.453c.026-.158.039-.368.039-.631-.026-1.077-.315-1.892-.867-2.443-.552-.578-1.314-.867-2.286-.867-2.312 0-3.757 1.314-4.335 3.941h7.448zM10.877 21.675H7.094v9.852H0V4.729h10.719c3.836 0 6.634.657 8.394 1.97 1.76 1.287 2.64 3.324 2.64 6.108 0 3.626-1.327 6.056-3.98 7.291L25.3 31.527h-8.197l-6.227-9.852zm-3.783-4.926h3.626c1.392 0 2.391-.289 2.995-.867.631-.578.946-1.471.946-2.68 0-1.261-.302-2.167-.906-2.719s-1.616-.828-3.034-.828H7.095v7.094z" style="fill:var(--color2, #101828)"/>
    </symbol>
  </defs>
</svg>
